<svg width="197" height="90" viewBox="0 0 197 90" fill="none" xmlns="http://www.w3.org/2000/svg">
<path fill="#273945" d="M35.5787 37.1921L22.5977 44.3179L36.0865 50.5692L7.71242 89.9877L12.6001 61.1283L0 56.7233L3.45948 37.516L47.7345 7.23142L35.5787 37.1921ZM29.0089 0.364746L7.80764 13.4503L4.47511 31.8478L20.7569 20.6409L29.0089 0.364746ZM163.929 0.364746L152.535 7.39337L150.757 17.2723L159.517 11.2478L163.929 0.364746ZM81.2819 26.9893L82.6467 20.2198H55.6056L48.4645 56.7233H76.1721L77.5368 49.9538H58.0177L59.6681 41.5H76.299L77.5686 34.9248H60.9376L62.4928 26.9893H81.2819ZM138.665 20.2198L122.478 46.2613L116.702 20.2198H108.164L116.448 56.7233H124.637L147.266 20.2198H138.665ZM197 20.2198H187.605L177.195 31.9449L171.197 20.2198H162.342L171.609 37.8075L154.471 56.7233H164.405L175.227 44.2855L181.575 56.7233H190.525L180.686 38.3258L197 20.2198ZM97.5002 20.2198H89.1848L82.0119 56.7233H108.228L109.593 49.8242H91.6604L97.5002 20.2198ZM150.154 20.2198L142.981 56.7233H151.297L158.438 20.2198H150.154Z"/>
</svg>
